# xmcd
#
# Track frame offsets: 
#        150
#        27434
#        90065
#        107101
#        125058
#        180361
#        201478
#        233331
#        268141
#
# Disc length: 3926 seconds
#
# Revision: 2
# Processed by: cddbd v1.5.2PL0 Copyright (c) Steve Scherf et al.
# Submitted via: ExactAudioCopy v1.0b3
#
DISCID=700f5409
DTITLE=立川志の輔 - 志の輔らくごのごらく2 「へっつい幽霊」「雛鍔」
DYEAR=2004
DGENRE=Other
TTITLE0=へっつい幽霊 出囃子「三下がり中の舞」〜マクラ
TTITLE1=へっつい幽霊 へっついの怪
TTITLE2=へっつい幽霊 大金出る
TTITLE3=へっつい幽霊 金、出せ
TTITLE4=へっつい幽霊 勝負〜サゲ〜追い出し
TTITLE5=雛鍔 出囃子「野毛山節」〜お屋敷は別世界
TTITLE6=雛鍔 それにひきかえ
TTITLE7=雛鍔 職人気質
TTITLE8=雛鍔 付け焼刃〜サゲ〜中入り砂切り
EXTD=YEAR: 2004
EXTT0=
EXTT1=
EXTT2=
EXTT3=
EXTT4=
EXTT5=
EXTT6=
EXTT7=
EXTT8=
PLAYORDER=
